<?xml version="1.0" standalone="no"?>
<!DOCTYPE svg PUBLIC "-//W3C//DTD SVG 20010904//EN"
 "http://www.w3.org/TR/2001/REC-SVG-20010904/DTD/svg10.dtd">
<svg version="1.0" xmlns="http://www.w3.org/2000/svg"
 width="500.000000pt" height="500.000000pt" viewBox="0 0 500.000000 500.000000"
 preserveAspectRatio="xMidYMid meet">

<g transform="translate(0.000000,500.000000) scale(0.100000,-0.100000)"
fill="#000000" stroke="none">
<path d="M341 3219 c-91 -47 -164 -147 -140 -191 10 -18 17 -19 72 -14 l62 7
35 -43 c50 -60 80 -104 80 -117 0 -5 -18 -29 -39 -52 -46 -50 -69 -112 -50
-136 16 -19 60 -11 102 19 l31 22 53 -60 c30 -32 70 -83 89 -111 18 -29 38
-53 44 -53 5 0 15 -11 22 -24 7 -13 29 -43 48 -66 19 -23 53 -64 75 -91 22
-26 56 -69 75 -95 56 -75 123 -149 135 -148 5 1 18 5 27 9 17 7 21 4 79 -67
21 -26 39 -38 58 -38 19 -1 35 -13 61 -46 109 -143 177 -220 185 -212 8 8 -53
89 -168 222 -28 33 -36 50 -32 68 4 17 -5 37 -35 76 -22 29 -40 56 -40 61 0 4
7 22 16 39 17 35 16 37 -86 156 -20 22 -42 51 -50 62 -8 12 -78 99 -155 194
-77 95 -150 186 -161 204 -12 17 -29 37 -38 45 -22 19 -21 24 19 82 38 56 43
80 20 99 -21 17 -59 6 -134 -41 -52 -33 -66 -38 -76 -27 -7 7 -38 41 -69 76
l-56 62 26 49 c20 40 23 54 14 70 -20 38 -41 40 -99 10z m64 -29 c12 -20 -13
-48 -39 -43 -37 7 -86 -31 -86 -67 0 -19 -6 -29 -20 -33 -63 -16 -8 83 75 134
33 21 61 24 70 9z m19 -179 c61 -73 83 -118 54 -109 -17 6 -136 159 -137 176
-2 26 20 9 83 -67z m279 -37 c3 -4 -4 -20 -16 -38 -12 -17 -23 -33 -24 -35 -1
-2 -9 1 -16 8 -27 22 -200 -130 -182 -159 5 -9 -42 -50 -56 -50 -16 0 -9 31
13 63 51 73 134 147 218 195 37 22 53 26 63 16z m-61 -136 c8 -7 42 -46 74
-86 60 -74 80 -100 247 -316 51 -65 109 -139 129 -163 62 -73 63 -77 23 -118
-40 -39 -73 -45 -99 -16 -15 16 -15 19 -1 31 21 17 19 50 -3 50 -10 0 -23 -5
-30 -12 -10 -10 -17 -7 -34 10 -19 19 -20 24 -9 46 19 34 8 60 -18 46 -29 -15
-39 -13 -52 11 -8 16 -8 27 2 45 18 34 0 52 -35 36 -21 -9 -26 -8 -39 11 -12
18 -12 25 -1 42 20 31 3 52 -30 37 -22 -10 -28 -8 -46 15 -19 24 -19 27 -4 44
9 10 14 25 11 34 -7 17 -33 20 -42 5 -12 -19 -23 -10 -94 80 -81 101 -81 109
-13 155 42 29 43 29 64 13z m525 -768 c27 -33 39 -60 27 -60 -11 0 -64 66 -64
79 0 18 14 11 37 -19z"/>
<path d="M2397 3152 c-15 -16 -16 -33 -7 -143 5 -68 10 -216 11 -329 2 -280 9
-354 32 -358 10 -2 27 4 38 14 18 16 19 29 14 248 -7 260 -30 517 -51 559 -17
32 -16 32 -37 9z"/>
<path d="M1505 2880 c-81 -11 -160 -38 -222 -79 -127 -82 -154 -158 -82 -230
41 -42 65 -46 178 -31 53 6 119 10 146 8 45 -3 50 -5 53 -29 2 -20 -6 -34 -36
-60 -45 -39 -191 -119 -216 -119 -20 0 -21 -24 -1 -44 14 -13 19 -13 53 1 103
42 181 92 243 153 72 71 89 109 65 145 -23 34 -88 39 -260 20 -133 -15 -150
-16 -163 -2 -24 23 -9 78 32 120 64 66 211 95 317 62 30 -8 50 -10 53 -4 9 13
-4 66 -18 77 -18 14 -86 20 -142 12z"/>
<path d="M2578 2878 c-13 -11 -16 -52 -21 -273 -2 -143 -2 -266 0 -272 3 -7
15 -13 27 -13 47 0 54 17 58 148 3 76 9 127 16 134 7 7 12 19 12 28 0 8 15 35
34 60 40 54 106 90 167 90 l44 0 14 -52 c18 -71 25 -238 14 -319 -5 -36 -7
-71 -5 -77 6 -19 70 -15 80 6 5 9 12 55 16 102 11 142 40 221 109 289 44 44
133 84 176 79 41 -5 49 -55 50 -286 l1 -203 43 3 42 3 -3 130 c-4 217 -21 366
-45 392 -31 35 -78 39 -165 14 -87 -25 -152 -59 -199 -104 l-33 -30 -15 35
c-8 20 -29 47 -46 59 -64 45 -200 22 -274 -47 -14 -13 -30 -24 -34 -24 -4 0
-13 28 -19 62 -13 70 -22 83 -44 66z"/>
<path d="M3776 2858 c-123 -48 -231 -164 -276 -297 -24 -72 -25 -121 -5 -161
23 -44 63 -60 151 -60 98 0 179 36 248 110 26 27 53 50 60 50 14 0 26 -42 26
-94 0 -55 10 -76 37 -76 l24 0 -2 139 c-4 241 -28 358 -81 395 -31 22 -121 19
-182 -6z m167 -90 c43 -51 -5 -179 -108 -283 -48 -48 -72 -63 -118 -77 -79
-24 -90 -23 -132 17 -34 31 -37 38 -30 72 12 64 47 125 110 189 84 85 152 118
225 108 19 -3 43 -14 53 -26z"/>
<path d="M4357 2855 c-37 -7 -83 -19 -102 -26 -30 -11 -37 -10 -54 5 -11 10
-28 16 -37 14 -17 -3 -18 -24 -16 -383 3 -407 10 -623 22 -630 4 -3 20 5 35
17 l27 21 -7 213 -7 213 23 10 c13 5 47 15 74 22 227 57 413 246 392 400 -12
89 -74 131 -202 136 -44 1 -110 -4 -148 -12z m180 -66 c42 -16 82 -58 89 -95
9 -50 -12 -97 -65 -147 -79 -74 -114 -92 -287 -147 -65 -21 -64 -23 -64 120 0
144 5 163 62 217 53 51 194 79 265 52z"/>
<path d="M2080 2794 c-113 -31 -222 -120 -270 -221 -14 -29 -25 -75 -28 -116
-4 -60 -2 -70 18 -92 35 -37 71 -47 152 -42 102 7 134 15 206 53 35 19 68 34
73 34 5 0 10 -66 10 -147 1 -82 4 -202 8 -268 l6 -120 34 -3 34 -3 -7 163 c-3
90 -9 287 -12 438 l-5 275 -29 29 c-23 24 -39 30 -82 32 -29 2 -78 -3 -108
-12z m127 -181 c-5 -93 -9 -109 -33 -140 -40 -53 -117 -83 -209 -83 -69 0 -76
2 -91 25 -19 29 -13 108 11 155 26 50 120 127 177 144 68 20 108 24 132 13 17
-9 18 -18 13 -114z"/>
</g>
</svg>
